<?xml version="1.0" encoding="utf-8"?>
<!-- Generator: Adobe Illustrator 16.0.0, SVG Export Plug-In . SVG Version: 6.00 Build 0)  -->
<!DOCTYPE svg PUBLIC "-//W3C//DTD SVG 1.1//EN" "http://www.w3.org/Graphics/SVG/1.1/DTD/svg11.dtd">
<svg version="1.1" id="Layer_1" xmlns="http://www.w3.org/2000/svg" xmlns:xlink="http://www.w3.org/1999/xlink" x="0px" y="0px"
	 width="171px" height="80px" viewBox="0 0 323.184 151.445" enable-background="new 0 0 323.184 151.445"
	 xml:space="preserve">
<rect x="0" y="0" opacity="0.75" fill="#650617" width="323.184" height="151.477"/>
<g>
	<g>
		<path fill="#FFFFFF" d="M66.885,76.503V42.364h7.078c5.105,0,8.811,0.41,11.117,1.229c3.311,1.161,5.898,3.172,7.763,6.034
			c1.864,2.863,2.797,6.274,2.797,10.235c0,3.419-0.74,6.429-2.217,9.027c-1.478,2.6-3.396,4.519-5.755,5.756
			c-2.36,1.238-5.667,1.857-9.921,1.857H66.885z M70.157,73.277h3.946c4.719,0,7.991-0.293,9.817-0.88
			c2.568-0.834,4.587-2.338,6.057-4.51c1.47-2.172,2.205-4.827,2.205-7.966c0-3.292-0.797-6.106-2.39-8.44
			c-1.594-2.334-3.814-3.935-6.661-4.8c-2.135-0.649-5.655-0.974-10.559-0.974h-2.414V73.277z"/>
		<path fill="#FFFFFF" d="M122.978,68.125l2.739,1.438c-0.897,1.764-1.936,3.188-3.112,4.27c-1.177,1.083-2.501,1.908-3.972,2.472
			c-1.471,0.563-3.137,0.845-4.994,0.845c-4.12,0-7.34-1.347-9.663-4.047c-2.323-2.699-3.484-5.751-3.484-9.156
			c0-3.203,0.982-6.057,2.949-8.562c2.494-3.188,5.83-4.781,10.012-4.781c4.305,0,7.743,1.632,10.313,4.897
			c1.827,2.305,2.756,5.183,2.788,8.633h-22.721c0.062,2.933,0.999,5.337,2.812,7.213c1.813,1.875,4.051,2.813,6.715,2.813
			c1.286,0,2.537-0.224,3.752-0.67c1.216-0.447,2.25-1.041,3.103-1.781C121.065,70.969,121.986,69.774,122.978,68.125z
			 M122.978,61.325c-0.433-1.733-1.065-3.117-1.894-4.154c-0.829-1.036-1.925-1.872-3.288-2.506
			c-1.364-0.634-2.796-0.952-4.299-0.952c-2.479,0-4.609,0.797-6.39,2.391c-1.302,1.16-2.286,2.9-2.951,5.221H122.978
			L122.978,61.325z"/>
		<path fill="#FFFFFF" d="M146.302,42.364h3.412v30.843h13.135v3.296h-16.547V42.364z"/>
		<path fill="#FFFFFF" d="M167.304,51.253h3.249v11.79c0,2.877,0.155,4.858,0.465,5.941c0.465,1.547,1.353,2.769,2.662,3.667
			c1.309,0.898,2.87,1.346,4.683,1.346c1.813,0,3.351-0.437,4.614-1.312c1.263-0.874,2.135-2.022,2.615-3.446
			c0.325-0.975,0.488-3.041,0.488-6.196v-11.79h3.318v12.393c0,3.481-0.406,6.104-1.218,7.868c-0.812,1.763-2.035,3.145-3.667,4.142
			c-1.632,0.997-3.678,1.495-6.139,1.495c-2.459,0-4.514-0.498-6.162-1.495c-1.647-0.998-2.877-2.391-3.69-4.178
			c-0.812-1.787-1.218-4.475-1.218-8.065V51.253L167.304,51.253z"/>
		<path fill="#FFFFFF" d="M221.123,56.498l-2.576,1.601c-2.225-2.955-5.261-4.432-9.11-4.432c-3.076,0-5.628,0.989-7.662,2.967
			c-2.032,1.979-3.048,4.382-3.048,7.209c0,1.839,0.467,3.571,1.402,5.193c0.935,1.623,2.217,2.882,3.848,3.779
			c1.63,0.896,3.458,1.345,5.482,1.345c3.709,0,6.738-1.478,9.087-4.434l2.576,1.695c-1.206,1.817-2.827,3.228-4.861,4.229
			c-2.035,1.002-4.352,1.501-6.951,1.501c-3.991,0-7.303-1.267-9.933-3.804c-2.63-2.538-3.945-5.624-3.945-9.261
			c0-2.444,0.614-4.715,1.845-6.812c1.23-2.096,2.92-3.733,5.071-4.908c2.151-1.176,4.557-1.764,7.218-1.764
			c1.67,0,3.283,0.255,4.839,0.766c1.555,0.511,2.873,1.175,3.957,1.996C219.445,54.185,220.366,55.229,221.123,56.498z"/>
		<path fill="#FFFFFF" d="M252.523,51.253v25.25h-3.203v-4.341c-1.362,1.657-2.89,2.902-4.584,3.737
			c-1.693,0.834-3.547,1.251-5.558,1.251c-3.573,0-6.626-1.293-9.155-3.886c-2.529-2.59-3.795-5.743-3.795-9.457
			c0-3.636,1.277-6.745,3.829-9.329c2.553-2.583,5.624-3.876,9.215-3.876c2.072,0,3.948,0.441,5.627,1.323
			c1.68,0.883,3.153,2.205,4.422,3.969v-4.642H252.523z M239.537,53.737c-1.808,0-3.478,0.444-5.006,1.333
			c-1.531,0.889-2.748,2.136-3.652,3.744c-0.904,1.607-1.355,3.308-1.355,5.1c0,1.778,0.456,3.478,1.367,5.1
			c0.912,1.623,2.137,2.887,3.674,3.79c1.538,0.905,3.188,1.357,4.949,1.357c1.778,0,3.462-0.449,5.055-1.345
			c1.591-0.896,2.815-2.109,3.674-3.64c0.857-1.529,1.287-3.253,1.287-5.169c0-2.92-0.963-5.363-2.888-7.326
			C244.719,54.718,242.351,53.737,239.537,53.737z"/>
	</g>
	<g>
		<path fill="#D0D0D0" d="M82.147,93.964l-1.609,1c-1.39-1.846-3.286-2.769-5.69-2.769c-1.92,0-3.516,0.618-4.785,1.854
			c-1.27,1.235-1.904,2.735-1.904,4.503c0,1.148,0.292,2.229,0.876,3.243s1.385,1.8,2.403,2.36c1.018,0.56,2.16,0.839,3.423,0.839
			c2.317,0,4.208-0.922,5.676-2.769l1.609,1.059c-0.753,1.135-1.766,2.016-3.037,2.641c-1.271,0.627-2.718,0.939-4.341,0.939
			c-2.493,0-4.561-0.792-6.204-2.378c-1.642-1.585-2.463-3.512-2.463-5.783c0-1.526,0.384-2.943,1.152-4.254
			c0.768-1.31,1.823-2.331,3.167-3.065c1.343-0.734,2.846-1.102,4.508-1.102c1.043,0,2.051,0.159,3.022,0.479
			c0.972,0.317,1.795,0.734,2.471,1.246C81.098,92.519,81.673,93.172,82.147,93.964z"/>
		<path fill="#D0D0D0" d="M85.785,90.688h2.029v7.364c0,1.797,0.096,3.033,0.291,3.71c0.29,0.967,0.844,1.73,1.662,2.29
			c0.818,0.561,1.792,0.841,2.925,0.841s2.093-0.273,2.881-0.819c0.789-0.546,1.333-1.263,1.634-2.152
			c0.203-0.609,0.304-1.898,0.304-3.869v-7.364h2.073v7.74c0,2.175-0.254,3.812-0.761,4.914s-1.271,1.964-2.291,2.588
			c-1.02,0.623-2.297,0.935-3.834,0.935c-1.536,0-2.819-0.312-3.848-0.935c-1.03-0.624-1.797-1.493-2.305-2.609
			c-0.507-1.116-0.761-2.795-0.761-5.037V90.688z"/>
		<path fill="#D0D0D0" d="M119.398,93.964l-1.609,1c-1.389-1.846-3.286-2.769-5.69-2.769c-1.92,0-3.515,0.618-4.785,1.854
			c-1.269,1.235-1.903,2.735-1.903,4.503c0,1.148,0.292,2.229,0.876,3.243c0.583,1.014,1.385,1.8,2.403,2.36
			c1.018,0.56,2.159,0.839,3.423,0.839c2.316,0,4.208-0.922,5.675-2.769l1.609,1.059c-0.754,1.135-1.766,2.016-3.037,2.641
			c-1.271,0.627-2.718,0.939-4.341,0.939c-2.493,0-4.561-0.792-6.204-2.378c-1.643-1.584-2.464-3.511-2.464-5.783
			c0-1.526,0.384-2.943,1.152-4.254c0.769-1.31,1.824-2.331,3.167-3.065c1.344-0.734,2.846-1.102,4.508-1.102
			c1.043,0,2.051,0.159,3.022,0.479c0.971,0.317,1.795,0.734,2.472,1.246C118.35,92.519,118.925,93.172,119.398,93.964z"/>
		<path fill="#D0D0D0" d="M124.001,84.194c0.462,0,0.856,0.165,1.183,0.493c0.328,0.328,0.491,0.725,0.491,1.188
			c0,0.454-0.164,0.846-0.491,1.175c-0.327,0.328-0.721,0.492-1.183,0.492c-0.452,0-0.842-0.164-1.169-0.492
			c-0.327-0.329-0.491-0.721-0.491-1.175c0-0.464,0.164-0.86,0.491-1.188S123.549,84.194,124.001,84.194z M122.993,90.688h2.029
			v15.771h-2.029V90.688z"/>
		<path fill="#D0D0D0" d="M129.24,90.688h2.029v2.827c0.812-1.082,1.711-1.893,2.696-2.429s2.059-0.804,3.218-0.804
			c1.179,0,2.225,0.299,3.138,0.897c0.913,0.6,1.587,1.407,2.022,2.421c0.435,1.015,0.652,2.595,0.652,4.74v8.117h-2.029v-7.523
			c0-1.815-0.076-3.028-0.226-3.638c-0.235-1.043-0.686-1.828-1.353-2.355c-0.667-0.526-1.537-0.79-2.61-0.79
			c-1.228,0-2.327,0.405-3.298,1.218c-0.972,0.812-1.612,1.817-1.921,3.015c-0.193,0.783-0.29,2.213-0.29,4.29v5.784h-2.029V90.688
			L129.24,90.688z"/>
		<path fill="#D0D0D0" d="M163.056,90.688v15.771h-2v-2.711c-0.85,1.034-1.805,1.812-2.863,2.334
			c-1.058,0.521-2.215,0.783-3.472,0.783c-2.232,0-4.138-0.81-5.718-2.428s-2.37-3.588-2.37-5.907c0-2.271,0.797-4.213,2.392-5.827
			c1.594-1.613,3.512-2.42,5.754-2.42c1.294,0,2.466,0.275,3.515,0.826c1.048,0.551,1.968,1.378,2.761,2.479v-2.898L163.056,90.688
			L163.056,90.688z M154.947,92.24c-1.129,0-2.171,0.277-3.127,0.832c-0.956,0.556-1.716,1.334-2.28,2.338
			c-0.565,1.004-0.847,2.066-0.847,3.186c0,1.111,0.285,2.172,0.854,3.186c0.569,1.013,1.333,1.802,2.294,2.367
			c0.96,0.564,1.991,0.847,3.091,0.847c1.111,0,2.162-0.28,3.156-0.84c0.994-0.56,1.759-1.316,2.295-2.272s0.804-2.032,0.804-3.229
			c0-1.823-0.601-3.35-1.803-4.575C158.182,92.853,156.704,92.24,154.947,92.24z"/>
		<path fill="#D0D0D0" d="M192.307,98.573l1.444,1.529c-0.927,0.822-1.808,1.53-2.641,2.128c0.58,0.533,1.337,1.267,2.269,2.198
			c0.737,0.732,1.369,1.408,1.899,2.029h-2.972l-2.828-2.914c-1.776,1.431-3.22,2.362-4.331,2.798
			c-1.111,0.435-2.285,0.652-3.522,0.652c-1.644,0-2.962-0.471-3.958-1.413c-0.995-0.942-1.493-2.119-1.493-3.531
			c0-1.062,0.335-2.128,1.007-3.196c0.671-1.068,2.04-2.419,4.106-4.053c-1.167-1.411-1.918-2.451-2.25-3.123
			c-0.333-0.67-0.5-1.311-0.5-1.918c0-1.062,0.411-1.942,1.232-2.638c0.947-0.811,2.125-1.217,3.537-1.217
			c0.889,0,1.7,0.179,2.435,0.536c0.734,0.357,1.294,0.838,1.682,1.442c0.386,0.604,0.58,1.244,0.58,1.92
			c0,0.716-0.251,1.477-0.755,2.283c-0.503,0.808-1.495,1.839-2.975,3.095l3.232,3.392l2.118,2.148
			C190.76,99.885,191.655,99.169,192.307,98.573z M182.693,96.409c-1.812,1.363-2.998,2.448-3.56,3.256
			c-0.562,0.807-0.843,1.555-0.843,2.24c0,0.812,0.343,1.53,1.031,2.153c0.687,0.624,1.53,0.936,2.527,0.936
			c0.754,0,1.496-0.154,2.222-0.464c1.143-0.493,2.452-1.33,3.928-2.511l-3.363-3.466C184.056,97.947,183.408,97.231,182.693,96.409
			z M182.953,93.586c1.036-0.802,1.815-1.589,2.337-2.362c0.368-0.55,0.552-1.038,0.552-1.464c0-0.492-0.239-0.917-0.719-1.275
			c-0.479-0.357-1.117-0.537-1.912-0.537c-0.756,0-1.372,0.185-1.846,0.551c-0.475,0.368-0.713,0.803-0.713,1.306
			c0,0.386,0.098,0.749,0.292,1.087C181.42,91.712,182.089,92.612,182.953,93.586z"/>
		<path fill="#D0D0D0" d="M206.656,106.458V84.6h2.03v8.799c0.849-1.044,1.801-1.824,2.853-2.341
			c1.052-0.517,2.206-0.774,3.461-0.774c2.23,0,4.135,0.808,5.712,2.427c1.577,1.619,2.366,3.582,2.366,5.893
			c0,2.28-0.796,4.228-2.387,5.841c-1.594,1.614-3.51,2.422-5.75,2.422c-1.284,0-2.447-0.276-3.489-0.827
			c-1.043-0.551-1.965-1.377-2.766-2.479v2.899H206.656L206.656,106.458z M214.773,104.907c1.128,0,2.169-0.277,3.124-0.833
			c0.954-0.556,1.713-1.337,2.278-2.341c0.564-1.005,0.846-2.068,0.846-3.189s-0.284-2.188-0.854-3.203
			c-0.568-1.015-1.333-1.805-2.292-2.37s-1.983-0.848-3.073-0.848c-1.109,0-2.162,0.282-3.16,0.848s-1.764,1.326-2.298,2.283
			c-0.536,0.956-0.804,2.035-0.804,3.232c0,1.826,0.601,3.354,1.801,4.58C211.541,104.294,213.019,104.907,214.773,104.907z"/>
		<path fill="#D0D0D0" d="M242.487,90.688v15.771h-2v-2.711c-0.851,1.034-1.805,1.812-2.863,2.334
			c-1.058,0.521-2.214,0.783-3.471,0.783c-2.233,0-4.14-0.81-5.719-2.428s-2.37-3.588-2.37-5.907c0-2.271,0.797-4.213,2.392-5.827
			c1.594-1.613,3.512-2.42,5.755-2.42c1.294,0,2.466,0.275,3.515,0.826s1.969,1.378,2.761,2.479v-2.898L242.487,90.688
			L242.487,90.688z M234.377,92.24c-1.13,0-2.172,0.277-3.127,0.832c-0.956,0.556-1.717,1.334-2.28,2.338
			c-0.565,1.004-0.848,2.066-0.848,3.186c0,1.111,0.285,2.172,0.854,3.186c0.569,1.013,1.334,1.802,2.295,2.367
			c0.96,0.564,1.991,0.847,3.09,0.847c1.111,0,2.162-0.28,3.156-0.84c0.995-0.56,1.76-1.316,2.296-2.272s0.804-2.032,0.804-3.229
			c0-1.823-0.601-3.35-1.804-4.575C237.613,92.853,236.133,92.24,234.377,92.24z"/>
		<path fill="#D0D0D0" d="M246.283,90.688h2.072v2.305c0.618-0.908,1.271-1.587,1.957-2.036c0.687-0.449,1.401-0.674,2.146-0.674
			c0.561,0,1.159,0.178,1.797,0.536l-1.058,1.711c-0.425-0.184-0.783-0.276-1.074-0.276c-0.675,0-1.327,0.277-1.955,0.833
			c-0.629,0.557-1.107,1.419-1.435,2.588c-0.252,0.898-0.378,2.716-0.378,5.45v5.334h-2.072V90.688L246.283,90.688z"/>
	</g>
</g>
</svg>
