<?xml version="1.0" encoding="utf-8"?>
<!-- Generator: Adobe Illustrator 16.0.0, SVG Export Plug-In . SVG Version: 6.00 Build 0)  -->
<!DOCTYPE svg PUBLIC "-//W3C//DTD SVG 1.1//EN" "http://www.w3.org/Graphics/SVG/1.1/DTD/svg11.dtd">
<svg version="1.1" id="Layer_1" xmlns="http://www.w3.org/2000/svg" xmlns:xlink="http://www.w3.org/1999/xlink" x="0px" y="0px"
	 width="167px" height="78px" viewBox="0 0 167 78" enable-background="new 0 0 167 78" xml:space="preserve">
<rect x="0.274" fill="#720222" enable-background="new    " width="166.453" height="78.017"/>
<g>
	<g>
		<path fill="#FFFFFF" d="M34.722,39.402V21.819h3.646c2.629,0,4.538,0.211,5.726,0.633c1.706,0.598,3.038,1.634,3.999,3.107
			c0.96,1.475,1.44,3.231,1.44,5.271c0,1.761-0.381,3.312-1.142,4.649c-0.761,1.339-1.749,2.328-2.964,2.965
			c-1.215,0.637-2.918,0.956-5.11,0.956L34.722,39.402L34.722,39.402z M36.407,37.74h2.033c2.43,0,4.116-0.151,5.056-0.453
			c1.322-0.43,2.362-1.204,3.12-2.323c0.757-1.119,1.135-2.486,1.135-4.103c0-1.696-0.41-3.145-1.23-4.347
			c-0.821-1.202-1.965-2.026-3.431-2.472c-1.1-0.334-2.913-0.501-5.438-0.501h-1.243L36.407,37.74L36.407,37.74z"/>
		<path fill="#FFFFFF" d="M63.612,35.087l1.411,0.741c-0.462,0.909-0.997,1.642-1.603,2.199c-0.606,0.558-1.288,0.983-2.046,1.273
			s-1.616,0.436-2.572,0.436c-2.122,0-3.78-0.694-4.977-2.084c-1.197-1.39-1.794-2.962-1.794-4.716c0-1.649,0.506-3.12,1.519-4.41
			c1.285-1.642,3.003-2.462,5.157-2.462c2.217,0,3.988,0.84,5.312,2.522c0.941,1.188,1.419,2.669,1.436,4.446H53.752
			c0.032,1.511,0.515,2.749,1.448,3.715c0.934,0.965,2.086,1.449,3.458,1.449c0.662,0,1.307-0.115,1.933-0.345
			s1.159-0.536,1.598-0.917C62.627,36.552,63.102,35.937,63.612,35.087z M63.612,31.585c-0.223-0.893-0.548-1.605-0.976-2.14
			c-0.427-0.534-0.991-0.964-1.693-1.291c-0.703-0.327-1.44-0.491-2.214-0.491c-1.277,0-2.374,0.411-3.292,1.231
			c-0.67,0.598-1.177,1.494-1.52,2.689H63.612L63.612,31.585z"/>
		<path fill="#FFFFFF" d="M75.625,21.819h1.757v15.885h6.765v1.697h-8.522V21.819z"/>
		<path fill="#FFFFFF" d="M86.441,26.397h1.674v6.072c0,1.481,0.08,2.502,0.24,3.06c0.238,0.797,0.696,1.426,1.37,1.889
			c0.675,0.462,1.479,0.693,2.412,0.693s1.726-0.225,2.376-0.676c0.65-0.45,1.1-1.042,1.348-1.775
			c0.167-0.502,0.251-1.566,0.251-3.191v-6.072h1.709v6.383c0,1.793-0.209,3.144-0.628,4.052c-0.418,0.908-1.048,1.62-1.889,2.133
			c-0.84,0.514-1.894,0.771-3.161,0.771c-1.267,0-2.325-0.257-3.174-0.771c-0.849-0.514-1.481-1.231-1.9-2.152
			s-0.628-2.305-0.628-4.154V26.397L86.441,26.397z"/>
		<path fill="#FFFFFF" d="M114.16,29.099l-1.326,0.825c-1.146-1.522-2.709-2.283-4.691-2.283c-1.585,0-2.899,0.509-3.947,1.528
			c-1.046,1.019-1.569,2.257-1.569,3.713c0,0.947,0.241,1.839,0.722,2.674c0.482,0.836,1.143,1.484,1.982,1.946
			c0.84,0.461,1.781,0.693,2.823,0.693c1.91,0,3.47-0.761,4.681-2.284l1.326,0.873c-0.621,0.936-1.456,1.663-2.504,2.178
			s-2.241,0.773-3.58,0.773c-2.055,0-3.761-0.653-5.115-1.96c-1.355-1.307-2.032-2.896-2.032-4.77c0-1.259,0.316-2.429,0.95-3.509
			c0.634-1.079,1.504-1.922,2.611-2.527c1.108-0.606,2.348-0.909,3.719-0.909c0.859,0,1.69,0.131,2.492,0.395
			c0.801,0.263,1.479,0.605,2.037,1.028C113.297,27.907,113.771,28.445,114.16,29.099z"/>
		<path fill="#FFFFFF" d="M130.333,26.397v13.004h-1.649v-2.236c-0.701,0.854-1.488,1.495-2.361,1.925
			c-0.872,0.43-1.826,0.645-2.862,0.645c-1.841,0-3.413-0.666-4.716-2.001c-1.303-1.334-1.954-2.958-1.954-4.871
			c0-1.873,0.657-3.474,1.972-4.805c1.315-1.33,2.896-1.996,4.746-1.996c1.067,0,2.033,0.227,2.898,0.681
			c0.865,0.455,1.624,1.136,2.277,2.044v-2.391L130.333,26.397L130.333,26.397z M123.645,27.677c-0.932,0-1.791,0.229-2.578,0.687
			c-0.789,0.458-1.416,1.1-1.881,1.928c-0.466,0.828-0.697,1.704-0.697,2.626c0,0.916,0.234,1.792,0.703,2.627
			c0.47,0.836,1.102,1.487,1.893,1.952c0.792,0.466,1.643,0.699,2.549,0.699c0.916,0,1.783-0.231,2.604-0.693
			c0.819-0.461,1.449-1.086,1.893-1.875c0.441-0.788,0.662-1.675,0.662-2.663c0-1.504-0.496-2.762-1.486-3.773
			C126.313,28.182,125.094,27.677,123.645,27.677z"/>
	</g>
	<g>
		<path fill="#D0D0D0" d="M42.583,48.395l-0.829,0.516c-0.716-0.951-1.692-1.426-2.93-1.426c-0.989,0-1.811,0.318-2.465,0.955
			c-0.654,0.636-0.98,1.408-0.98,2.318c0,0.592,0.15,1.148,0.451,1.67c0.301,0.523,0.713,0.928,1.238,1.216s1.112,0.433,1.763,0.433
			c1.193,0,2.167-0.475,2.923-1.426l0.829,0.545c-0.388,0.584-0.909,1.038-1.564,1.36c-0.655,0.323-1.4,0.483-2.236,0.483
			c-1.284,0-2.349-0.408-3.195-1.225c-0.846-0.816-1.269-1.809-1.269-2.979c0-0.786,0.198-1.516,0.593-2.191
			c0.396-0.674,0.939-1.2,1.631-1.578c0.691-0.378,1.466-0.568,2.322-0.568c0.537,0,1.056,0.082,1.557,0.248
			c0.5,0.162,0.924,0.377,1.272,0.641C42.042,47.65,42.339,47.987,42.583,48.395z"/>
		<path fill="#D0D0D0" d="M44.457,46.708h1.045V50.5c0,0.926,0.049,1.562,0.15,1.911c0.149,0.498,0.435,0.892,0.856,1.18
			c0.421,0.289,0.923,0.433,1.506,0.433c0.584,0,1.078-0.141,1.484-0.422c0.407-0.281,0.687-0.65,0.842-1.107
			c0.104-0.314,0.157-0.979,0.157-1.993v-3.792h1.067v3.986c0,1.119-0.131,1.963-0.392,2.53c-0.261,0.567-0.654,1.012-1.18,1.333
			c-0.525,0.32-1.183,0.481-1.975,0.481c-0.791,0-1.452-0.161-1.982-0.481c-0.531-0.321-0.926-0.77-1.187-1.344
			s-0.392-1.439-0.392-2.594L44.457,46.708L44.457,46.708z"/>
		<path fill="#D0D0D0" d="M61.769,48.395L60.94,48.91c-0.715-0.951-1.692-1.426-2.931-1.426c-0.989,0-1.811,0.318-2.464,0.955
			c-0.654,0.636-0.98,1.408-0.98,2.318c0,0.592,0.15,1.148,0.451,1.67c0.3,0.523,0.713,0.928,1.238,1.216s1.112,0.433,1.763,0.433
			c1.193,0,2.167-0.475,2.923-1.426l0.829,0.545c-0.388,0.584-0.91,1.038-1.564,1.36c-0.654,0.323-1.4,0.483-2.236,0.483
			c-1.284,0-2.349-0.408-3.195-1.225c-0.846-0.816-1.269-1.809-1.269-2.979c0-0.786,0.198-1.516,0.593-2.191
			c0.396-0.674,0.939-1.2,1.631-1.578c0.692-0.378,1.466-0.568,2.322-0.568c0.537,0,1.057,0.082,1.557,0.248
			c0.5,0.162,0.924,0.377,1.273,0.641C61.229,47.65,61.525,47.987,61.769,48.395z"/>
		<path fill="#D0D0D0" d="M64.139,43.363c0.238,0,0.441,0.085,0.609,0.254c0.169,0.169,0.253,0.373,0.253,0.611
			c0,0.234-0.084,0.436-0.253,0.605c-0.168,0.169-0.372,0.254-0.609,0.254c-0.233,0-0.434-0.085-0.602-0.254
			c-0.168-0.17-0.253-0.371-0.253-0.605c0-0.238,0.084-0.442,0.253-0.611S63.906,43.363,64.139,43.363z M63.62,46.708h1.045v8.122
			H63.62V46.708z"/>
		<path fill="#D0D0D0" d="M66.837,46.708h1.045v1.456c0.418-0.558,0.881-0.975,1.389-1.252c0.507-0.275,1.061-0.414,1.658-0.414
			c0.607,0,1.146,0.154,1.616,0.463s0.817,0.725,1.042,1.246c0.224,0.523,0.336,1.337,0.336,2.441v4.182h-1.045v-3.875
			c0-0.936-0.039-1.56-0.117-1.874c-0.121-0.537-0.353-0.941-0.697-1.213c-0.343-0.271-0.792-0.407-1.344-0.407
			c-0.632,0-1.198,0.209-1.699,0.628c-0.5,0.418-0.83,0.936-0.989,1.553c-0.099,0.403-0.149,1.14-0.149,2.21v2.979h-1.045
			L66.837,46.708L66.837,46.708z"/>
		<path fill="#D0D0D0" d="M84.254,46.708v8.122h-1.03v-1.396c-0.438,0.533-0.93,0.934-1.475,1.203
			c-0.545,0.268-1.141,0.402-1.789,0.402c-1.149,0-2.131-0.416-2.945-1.25c-0.813-0.834-1.221-1.848-1.221-3.043
			c0-1.169,0.411-2.169,1.232-3s1.809-1.247,2.964-1.247c0.667,0,1.27,0.142,1.81,0.426s1.014,0.71,1.422,1.276v-1.492
			L84.254,46.708L84.254,46.708z M80.078,47.508c-0.582,0-1.118,0.143-1.61,0.428c-0.493,0.287-0.884,0.688-1.174,1.204
			c-0.291,0.517-0.437,1.064-0.437,1.642c0,0.572,0.147,1.118,0.44,1.641c0.293,0.521,0.687,0.928,1.182,1.219
			c0.494,0.291,1.025,0.437,1.592,0.437c0.572,0,1.114-0.145,1.625-0.433c0.512-0.289,0.906-0.678,1.182-1.17
			c0.276-0.492,0.414-1.047,0.414-1.664c0-0.938-0.31-1.725-0.929-2.355C81.744,47.822,80.982,47.508,80.078,47.508z"/>
		<path fill="#D0D0D0" d="M99.319,50.77l0.743,0.787c-0.477,0.423-0.931,0.787-1.359,1.096c0.299,0.274,0.688,0.652,1.168,1.132
			c0.38,0.378,0.705,0.726,0.979,1.046h-1.531l-1.456-1.502c-0.915,0.737-1.658,1.217-2.23,1.441s-1.177,0.336-1.813,0.336
			c-0.848,0-1.526-0.242-2.039-0.728s-0.77-1.092-0.77-1.819c0-0.547,0.173-1.096,0.52-1.646c0.346-0.55,1.051-1.246,2.114-2.087
			c-0.601-0.727-0.987-1.263-1.159-1.609c-0.171-0.345-0.257-0.675-0.257-0.987c0-0.547,0.212-1.001,0.634-1.358
			c0.488-0.418,1.096-0.627,1.822-0.627c0.458,0,0.875,0.092,1.254,0.275s0.666,0.432,0.867,0.743
			c0.198,0.312,0.298,0.641,0.298,0.989c0,0.368-0.129,0.76-0.389,1.176c-0.259,0.416-0.771,0.947-1.532,1.594l1.664,1.747
			l1.092,1.106C98.522,51.445,98.983,51.076,99.319,50.77z M94.367,49.654c-0.933,0.702-1.543,1.261-1.833,1.677
			S92.1,52.133,92.1,52.484c0,0.419,0.178,0.789,0.531,1.109c0.354,0.321,0.788,0.482,1.302,0.482c0.388,0,0.771-0.08,1.145-0.239
			c0.589-0.254,1.263-0.685,2.022-1.293l-1.731-1.785C95.07,50.446,94.736,50.078,94.367,49.654z M94.502,48.2
			c0.533-0.413,0.935-0.818,1.203-1.216c0.189-0.283,0.285-0.535,0.285-0.754c0-0.254-0.123-0.473-0.371-0.657
			c-0.246-0.185-0.575-0.276-0.984-0.276c-0.39,0-0.707,0.096-0.951,0.283c-0.244,0.189-0.367,0.414-0.367,0.673
			c0,0.198,0.051,0.386,0.15,0.56C93.713,47.235,94.057,47.699,94.502,48.2z"/>
		<path fill="#D0D0D0" d="M106.71,54.83V43.572h1.046v4.531c0.437-0.537,0.927-0.939,1.469-1.205
			c0.542-0.267,1.137-0.398,1.783-0.398c1.148,0,2.129,0.416,2.941,1.25s1.219,1.845,1.219,3.035c0,1.174-0.41,2.178-1.229,3.008
			c-0.821,0.832-1.808,1.248-2.962,1.248c-0.661,0-1.26-0.143-1.797-0.426c-0.537-0.284-1.012-0.71-1.424-1.277v1.493L106.71,54.83
			L106.71,54.83z M110.891,54.031c0.58,0,1.117-0.143,1.608-0.43c0.491-0.285,0.882-0.688,1.173-1.205s0.437-1.065,0.437-1.643
			s-0.146-1.127-0.44-1.649c-0.292-0.522-0.686-0.93-1.18-1.221s-1.021-0.437-1.583-0.437c-0.571,0-1.114,0.145-1.628,0.437
			s-0.908,0.683-1.184,1.176c-0.275,0.492-0.414,1.048-0.414,1.665c0,0.939,0.311,1.727,0.928,2.358
			C109.226,53.715,109.986,54.031,110.891,54.031z"/>
		<path fill="#D0D0D0" d="M125.164,46.708v8.122h-1.03v-1.396c-0.438,0.533-0.93,0.934-1.475,1.203
			c-0.545,0.268-1.14,0.402-1.788,0.402c-1.149,0-2.132-0.416-2.945-1.25c-0.812-0.834-1.221-1.848-1.221-3.043
			c0-1.169,0.411-2.169,1.232-3c0.82-0.831,1.809-1.247,2.964-1.247c0.667,0,1.271,0.142,1.811,0.426s1.015,0.71,1.422,1.276v-1.492
			L125.164,46.708L125.164,46.708z M120.987,47.508c-0.582,0-1.119,0.143-1.61,0.428c-0.492,0.287-0.885,0.688-1.175,1.204
			c-0.291,0.517-0.437,1.064-0.437,1.642c0,0.572,0.146,1.118,0.439,1.641c0.293,0.521,0.688,0.928,1.182,1.219
			c0.495,0.291,1.025,0.437,1.592,0.437c0.572,0,1.113-0.145,1.626-0.433c0.513-0.289,0.906-0.678,1.183-1.17
			c0.275-0.492,0.414-1.047,0.414-1.664c0-0.938-0.31-1.725-0.93-2.355C122.654,47.822,121.892,47.508,120.987,47.508z"/>
		<path fill="#D0D0D0" d="M127.119,46.708h1.067v1.187c0.317-0.467,0.654-0.816,1.008-1.049c0.354-0.23,0.722-0.347,1.104-0.347
			c0.289,0,0.598,0.092,0.926,0.276l-0.545,0.881c-0.219-0.095-0.402-0.143-0.553-0.143c-0.348,0-0.684,0.144-1.007,0.43
			c-0.324,0.287-0.57,0.73-0.739,1.333c-0.13,0.462-0.194,1.399-0.194,2.807v2.747h-1.067V46.708L127.119,46.708z"/>
	</g>
</g>
</svg>
