<?xml version="1.0" encoding="utf-8"?>
<!-- Generator: Adobe Illustrator 16.0.0, SVG Export Plug-In . SVG Version: 6.00 Build 0)  -->
<!DOCTYPE svg PUBLIC "-//W3C//DTD SVG 1.1//EN" "http://www.w3.org/Graphics/SVG/1.1/DTD/svg11.dtd">
<svg version="1.1" id="Layer_1" xmlns="http://www.w3.org/2000/svg" xmlns:xlink="http://www.w3.org/1999/xlink" x="0px" y="0px"
	 width="39.68px" height="39.68px" viewBox="23.83 0 82.68 82.68" enable-background="new 23.83 0 82.68 82.68"
	 xml:space="preserve">
<path fill-rule="evenodd" clip-rule="evenodd" fill="#FFFFFF" d="M34.443,0h61.455c5.836,0,10.611,4.775,10.611,10.613v61.452
	c0,5.838-4.775,10.614-10.611,10.614H34.443c-5.836,0-10.613-4.776-10.613-10.614V10.613C23.83,4.775,28.607,0,34.443,0L34.443,0z
	 M84.058,9.187c-2.048,0-3.721,1.675-3.721,3.721v8.912c0,2.045,1.673,3.721,3.721,3.721h9.345c2.048,0,3.722-1.675,3.722-3.721
	v-8.912c0-2.045-1.674-3.721-3.722-3.721H84.058L84.058,9.187z M97.164,34.963h-7.276c0.688,2.251,1.06,4.63,1.06,7.096
	c0,13.752-11.506,24.899-25.699,24.899c-14.192,0-25.698-11.147-25.698-24.899c0-2.465,0.373-4.845,1.062-7.096h-7.595v34.926
	c0,1.807,1.479,3.285,3.288,3.285h57.574c1.806,0,3.285-1.479,3.285-3.285V34.963L97.164,34.963z M65.248,25.072
	c-9.17,0-16.604,7.204-16.604,16.089c0,8.886,7.434,16.089,16.604,16.089s16.606-7.203,16.606-16.089
	C81.854,32.276,74.418,25.072,65.248,25.072z"/>
</svg>
