<?xml version="1.0" encoding="utf-8"?>
<!-- Generator: Adobe Illustrator 16.0.0, SVG Export Plug-In . SVG Version: 6.00 Build 0)  -->
<!DOCTYPE svg PUBLIC "-//W3C//DTD SVG 1.1//EN" "http://www.w3.org/Graphics/SVG/1.1/DTD/svg11.dtd">
<svg version="1.1" id="Layer_1" xmlns="http://www.w3.org/2000/svg" xmlns:xlink="http://www.w3.org/1999/xlink" x="0px" y="0px"
	 width="71.939px" height="39.336px" viewBox="0 0 141.939 83.336" enable-background="new 0 0 141.939 83.336"
	 xml:space="preserve">
<g>
	<g>
		<path fill="#FFFFFF" d="M105.201,12.699C95.08,8.279,83.623,5.896,70.979,5.896c-0.062,0-0.123,0.002-0.186,0.002
			C83.396,5.91,94.824,8.29,104.92,12.699C86.936,13.25,72.345,27.233,70.832,44.957c0.085,1.001,0.139,2.012,0.139,3.035
			C70.975,28.854,86.201,13.281,105.201,12.699z"/>
		<path fill="#FFFFFF" d="M34.35,42.15c-3.184,0-5.764,2.58-5.764,5.764c0,3.188,2.58,5.766,5.764,5.766s5.764-2.578,5.764-5.766
			C40.113,44.73,37.533,42.15,34.35,42.15z"/>
		<path fill="#FFFFFF" d="M105.412,42.07c-3.184,0-5.766,2.578-5.766,5.766s2.582,5.766,5.766,5.766s5.762-2.578,5.762-5.766
			S108.596,42.07,105.412,42.07z"/>
		<path fill="#FFFFFF" d="M35.229,30.764c-9.471,0-17.148,7.68-17.148,17.15c0,9.477,7.678,17.148,17.148,17.148
			c9.473,0,17.15-7.672,17.15-17.148C52.379,38.443,44.701,30.764,35.229,30.764z M35.229,59.797
			c-6.562,0-11.883-5.32-11.883-11.883c0-6.564,5.32-11.885,11.883-11.885c6.564,0,11.885,5.32,11.885,11.885
			C47.113,54.477,41.793,59.797,35.229,59.797z"/>
		<path fill="#FFFFFF" d="M106.291,30.686c-9.473,0-17.148,7.676-17.148,17.15c0,9.469,7.676,17.148,17.148,17.148
			c9.469,0,17.148-7.68,17.148-17.148C123.439,38.361,115.76,30.686,106.291,30.686z M106.291,59.719
			c-6.562,0-11.883-5.32-11.883-11.883c0-6.566,5.32-11.887,11.883-11.887s11.883,5.32,11.883,11.887
			C118.174,54.398,112.854,59.719,106.291,59.719z"/>
		<path fill="#FFFFFF" d="M118.326,13.166C106.283,5.062,89.838,0,70.979,0C52.111,0,34.537,5.059,22.494,13.166H0
			c3.668,4.291,6.383,10.098,7.059,14.086C2.818,33.078,0.307,40.244,0.307,48c0,19.516,15.818,35.336,35.332,35.336
			c11.072,0,20.951-5.102,27.43-13.07c2.643,3.086,7.016,9.297,7.902,11.102c0,0,5.074-7.578,7.926-11.07
			c6.477,7.953,16.348,13.039,27.406,13.039c19.512,0,35.332-15.82,35.332-35.336c0-7.752-2.516-14.912-6.754-20.736
			c0.672-3.988,3.387-9.801,7.059-14.098H118.326z M35.639,76.445C19.93,76.445,7.195,63.711,7.195,48
			c0-15.705,12.734-28.441,28.443-28.441S64.084,32.295,64.084,48C64.084,63.711,51.348,76.445,35.639,76.445z M70.832,44.957
			c-0.086,1.001-0.139,2.012-0.139,3.035C70.689,28.504,54.9,12.701,35.414,12.674c10.109-4.402,22.662-6.777,35.287-6.777
			c0.031,0,0.061,0.002,0.092,0.002c0.062,0,0.123-0.002,0.186-0.002c12.645,0,24.102,2.383,34.223,6.803
			c-19,0.582-34.227,16.154-34.23,35.293C70.971,46.969,70.917,45.958,70.832,44.957z M106.303,76.445
			c-15.711,0-28.445-12.734-28.445-28.445c0-15.705,12.734-28.441,28.445-28.441c15.707,0,28.441,12.736,28.441,28.441
			C134.744,63.711,122.01,76.445,106.303,76.445z"/>
		<path fill="#FFFFFF" d="M35.693,12.674c10.06-4.381,22.539-6.752,35.1-6.775c-0.031,0-0.061-0.002-0.092-0.002
			c-12.625,0-25.178,2.375-35.287,6.777c19.486,0.027,35.275,15.83,35.279,35.318c0-1.023,0.053-2.034,0.139-3.035
			C69.289,26.891,54.154,12.699,35.693,12.674z"/>
	</g>
</g>
</svg>
