<?xml version="1.0" encoding="utf-8"?>
<!-- Generator: Adobe Illustrator 16.0.0, SVG Export Plug-In . SVG Version: 6.00 Build 0)  -->
<!DOCTYPE svg PUBLIC "-//W3C//DTD SVG 1.1//EN" "http://www.w3.org/Graphics/SVG/1.1/DTD/svg11.dtd">
<svg version="1.1" id="Layer_1" xmlns="http://www.w3.org/2000/svg" xmlns:xlink="http://www.w3.org/1999/xlink" x="0px" y="0px"
	 width="99px" height="99px" viewBox="0 0 80 80" enable-background="new 0 0 80 80" xml:space="preserve">
<g>
	<rect x="221.26" y="-24.498" fill="#384F92" width="130.103" height="130.109"/>
	<g>
		<path fill="#FFFFFF" d="M293.442,94.227V45.303h-12.932V27.685h12.932c0,0,0-7.22,0-15.049c0-11.825,7.644-22.678,25.253-22.678
			c7.127,0,12.402,0.678,12.402,0.678l-0.416,16.453c0,0-5.381-0.05-11.248-0.05c-6.348,0-7.365,2.922-7.365,7.784
			c0,3.839,0-8.184,0,12.862h19.115l-0.829,17.618h-18.286v48.924H293.442z"/>
	</g>
</g>
<path fill="#FFFFFF" d="M61.012,28.004c-1.445,0.642-3,1.075-4.632,1.269c1.664-0.999,2.945-2.579,3.547-4.461
	c-1.56,0.924-3.284,1.595-5.121,1.958c-1.472-1.569-3.566-2.548-5.887-2.548c-4.452,0-8.06,3.611-8.06,8.065
	c0,0.631,0.07,1.247,0.207,1.838c-6.702-0.336-12.643-3.548-16.621-8.426c-0.695,1.192-1.093,2.576-1.093,4.053
	c0,2.798,1.425,5.267,3.588,6.714c-1.321-0.043-2.565-0.406-3.652-1.011c-0.001,0.036-0.001,0.069-0.001,0.104
	c0,3.907,2.78,7.168,6.468,7.909c-0.676,0.184-1.389,0.281-2.124,0.281c-0.519,0-1.024-0.049-1.519-0.145
	c1.027,3.205,4.006,5.535,7.533,5.602c-2.759,2.162-6.235,3.451-10.014,3.451c-0.651,0-1.293-0.038-1.924-0.113
	c3.569,2.289,7.808,3.623,12.362,3.623c14.829,0,22.94-12.286,22.94-22.946c0-0.347-0.009-0.696-0.023-1.042
	C58.562,31.042,59.932,29.621,61.012,28.004z"/>
</svg>
